<?xml version="1.0" encoding="iso-8859-1"?>
<!-- Generator: Adobe Illustrator 21.0.0, SVG Export Plug-In . SVG Version: 6.00 Build 0)  -->
<svg version="1.1" id="Layer_1" xmlns="http://www.w3.org/2000/svg" xmlns:xlink="http://www.w3.org/1999/xlink" x="0px" y="0px"
	 viewBox="0 0 24 24" enable-background="new 0 0 24 24" xml:space="preserve">
<g>
	<path fill="#303C42" d="M12,3C6.1826172,3,0,4.5771484,0,7.5v10c0,1.3930664,1.546875,2.628418,4.3549805,3.4785156
		c0.1074219,0.0317383,0.2255859,0.0268555,0.3305664-0.0141602L12,18.0385742l7.3144531,2.9257813
		C19.3740234,20.987793,19.4370117,21,19.5,21c0.0488281,0,0.0976563-0.0073242,0.1450195-0.0214844
		C22.453125,20.128418,24,18.8930664,24,17.5v-10C24,4.5771484,17.8173828,3,12,3z"/>
	<path fill="#6D4C41" d="M12,4c6.4824219,0,11,1.8447266,11,3.5c0,0.8691406-1.3129883,1.8149414-3.4394531,2.4858398
		l-7.375-2.9501953C12.1259766,7.0117188,12.0629883,7,12,7s-0.1259766,0.0117188-0.1855469,0.0356445l-7.375,2.9501953
		C2.3129883,9.3149414,1,8.3691406,1,7.5C1,5.8447266,5.5175781,4,12,4z"/>
	<path opacity="0.1" d="M4.4394531,9.9858398l7.375-2.9501953C11.8740234,7.0117188,11.9370117,7,12,7
		s0.1259766,0.0117188,0.1855469,0.0356445l7.375,2.9501953C21.6870117,9.3149414,23,8.3691406,23,7.5
		c0-0.0704956-0.0194702-0.1416016-0.0356445-0.2126465c-0.1765137,0.8138428-1.4414444,1.5146551-3.4114151,2.1361761
		l-7.3673935-2.9212184C12.1259766,6.4783854,12.0629883,6.4666667,12,6.4666667s-0.1259766,0.0117188-0.1855469,0.0356445
		L4.4394531,9.9858398"/>
	<path opacity="0.2" fill="#FFFFFF" d="M1.7506104,8.2506104c0-1.6552734,4.5175781-3.5,11-3.5
		c4.7423706,0,8.4238892,0.9882202,10.0635986,2.1663208C21.9147339,5.4398804,17.7271118,4,12,4C5.5175781,4,1,5.8447266,1,7.5
		c0,0.4400024,0.3389282,0.8994141,0.9471436,1.3331299C1.8247681,8.6377563,1.7506104,8.4423218,1.7506104,8.2506104z"/>
	<polygon fill="#795548" points="4.9609375,14.354187 11.5,11.7385864 11.5,14.161438 4.9609375,16.7772217 	"/>
	<polygon fill="#795548" points="12.5,11.7385864 19.0390625,14.354187 19.0390625,16.7772217 12.5,14.161438 	"/>
	<polygon fill="#FFE0B2" points="19.0390625,13.2772217 12.5,10.661438 12.5,8.2385864 19.0390625,10.854187 	"/>
	<polygon fill="#FFE0B2" points="11.5,10.661438 4.9609375,13.2772217 4.9609375,10.854187 11.5,8.2385864 	"/>
	<polygon fill="#FFE0B2" points="4.9609375,17.854187 11.5,15.2385864 11.5,17.161438 4.9609375,19.7772217 	"/>
	<polygon opacity="0.1" points="4.9609375,14.354187 11.5,11.7385864 11.5,14.161438 4.9609375,16.7772217 	"/>
	<polygon opacity="0.1" points="11.5,10.661438 4.9609375,13.2772217 4.9609375,10.854187 11.5,8.2385864 	"/>
	<polygon opacity="0.1" points="4.9609375,17.854187 11.5,15.2385864 11.5,17.161438 4.9609375,19.7772217 	"/>
	<polygon fill="#FFE0B2" points="12.5,15.2385864 19.0390625,17.854187 19.0390625,19.7772217 12.5,17.161438 	"/>
	<polygon opacity="0.2" fill="#FFFFFF" points="12.5,11.7385864 19.0390625,14.354187 19.0390625,16.7772217 12.5,14.161438 	"/>
	<polygon opacity="0.2" fill="#FFFFFF" points="19.0390625,13.2772217 12.5,10.661438 12.5,8.2385864 19.0390625,10.854187 	"/>
	<polygon opacity="0.2" fill="#FFFFFF" points="12.5,15.2385864 19.0390625,17.854187 19.0390625,19.7772217 12.5,17.161438 	"/>
	<path fill="#6D4C41" d="M1,9.3520508c0.668396,0.581665,1.6672363,1.0962524,2.9609375,1.5216064v2.4180908
		C2.0987549,12.6292725,1,11.7940063,1,11V9.3520508z"/>
	<path fill="#6D4C41" d="M1,12.8267822c0.6682739,0.5767212,1.6671143,1.0900269,2.9609375,1.5182495v2.4467163
		C2.0987549,16.1292725,1,15.2940063,1,14.5V12.8267822z"/>
	<path fill="#6D4C41" d="M1,17.5v-1.1732178c0.6682739,0.5767212,1.6671143,1.0900269,2.9609375,1.5182495v1.9467163
		C2.0987549,19.1292725,1,18.2940063,1,17.5z"/>
	<path opacity="0.2" fill="#FFFFFF" d="M1.5195313,11.4041138V9.7429199C1.3305054,9.6160889,1.1542969,9.4863281,1,9.3520508V11
		c0,0.3768921,0.2546997,0.7626343,0.7139282,1.1351929C1.5872803,11.8910522,1.5195313,11.6460571,1.5195313,11.4041138z"/>
	<path opacity="0.2" fill="#FFFFFF" d="M1.5195313,14.9249268v-1.710022C1.3304443,13.0888062,1.1542969,12.9598999,1,12.8267822
		V14.5c0,0.4000244,0.2802124,0.8104248,0.795105,1.2040405C1.6207275,15.4442749,1.5195313,15.1828003,1.5195313,14.9249268z"/>
	<path opacity="0.2" fill="#FFFFFF" d="M1.5195313,17.4886475v-0.7737427C1.3304443,16.5888062,1.1542969,16.4598999,1,16.3267822
		V17.5c0,0.7940063,1.0987549,1.6292725,2.9609375,2.291748v-0.215271
		C2.4195557,18.9512329,1.5195313,18.2037354,1.5195313,17.4886475z"/>
	<path fill="#6D4C41" d="M20.0390625,19.791748v-1.9467163C21.3328857,17.4168091,22.3317261,16.9035034,23,16.3267822V17.5
		C23,18.2940063,21.9012451,19.1292725,20.0390625,19.791748z"/>
	<path fill="#6D4C41" d="M20.0390625,16.791748v-2.4467163C21.3328857,13.9168091,22.3317261,13.4035034,23,12.8267822V14.5
		C23,15.2940063,21.9012451,16.1292725,20.0390625,16.791748z"/>
	<path fill="#6D4C41" d="M20.0390625,13.291748v-2.4180908C21.3327637,10.4483032,22.331604,9.9337158,23,9.3520508V11
		C23,11.7940063,21.9012451,12.6292725,20.0390625,13.291748z"/>
	<path opacity="0.1" d="M22.4804688,11.4273977V9.7662039C22.6694946,9.6393728,22.8457031,9.5096121,23,9.3753347v1.6479492
		c0,0.3768921-0.2546997,0.7626343-0.7139282,1.1351929C22.4127197,11.9143362,22.4804688,11.6693411,22.4804688,11.4273977z"/>
	<path opacity="0.1" d="M22.4804688,14.9482107v-1.710022C22.6695557,13.1120901,22.8457031,12.9831839,23,12.8500662v1.6732178
		c0,0.4000244-0.2802124,0.8104248-0.795105,1.2040405C22.3792725,15.4675589,22.4804688,15.2060843,22.4804688,14.9482107z"/>
	<path opacity="0.1" d="M22.4804688,17.5119324v-0.7737427C22.6695557,16.6120911,22.8457031,16.4831848,23,16.3500671v1.1732178
		c0,0.7940063-1.0987549,1.6292725-2.9609375,2.291748v-0.215271
		C21.5804443,18.9745178,22.4804688,18.2270203,22.4804688,17.5119324z"/>
	<linearGradient id="SVGID_1_" gradientUnits="userSpaceOnUse" x1="0.0633429" y1="6.9105105" x2="23.9424076" y2="18.0455017">
		<stop  offset="0" style="stop-color:#FFFFFF;stop-opacity:0.2"/>
		<stop  offset="1" style="stop-color:#FFFFFF;stop-opacity:0"/>
	</linearGradient>
	<path fill="url(#SVGID_1_)" d="M12,3C6.1826172,3,0,4.5771484,0,7.5v10c0,1.3930664,1.546875,2.628418,4.3549805,3.4785156
		c0.1074219,0.0317383,0.2255859,0.0268555,0.3305664-0.0141602L12,18.0385742l7.3144531,2.9257813
		C19.3740234,20.987793,19.4370117,21,19.5,21c0.0488281,0,0.0976563-0.0073242,0.1450195-0.0214844
		C22.453125,20.128418,24,18.8930664,24,17.5v-10C24,4.5771484,17.8173828,3,12,3z"/>
</g>
<g>
</g>
<g>
</g>
<g>
</g>
<g>
</g>
<g>
</g>
<g>
</g>
<g>
</g>
<g>
</g>
<g>
</g>
<g>
</g>
<g>
</g>
<g>
</g>
<g>
</g>
<g>
</g>
<g>
</g>
</svg>
